# xmcd CD database file
#
# Track frame offsets:
#	150
#	27842
#	39427
#	55605
#	85252
#	113230
#	127232
#	151157
#	198627
#
# Disc length: 3193 seconds
#
# Revision: 0
# Processed by: cddbd v1.5.2PL0 Copyright (c) Steve Scherf et al.
# Submitted via: CDex 1.51
#
DISCID=710c7709
DTITLE=tokusen JAZZ - SAX II
DYEAR=1900
DGENRE=Jazz
TTITLE0=you are too beautiful - sonny rollins(live)
TTITLE1=skokiaan - johnny hodges orchestra
TTITLE2=star eyes - chalie parker
TTITLE3=autumn leaves - sonny stitt gene ammons
TTITLE4=billie's bounce - lee konitz
TTITLE5='round midnight - stan getz
TTITLE6=louise - lester young/teddy wilson quartet
TTITLE7=josha fit the battle of jerico - coleman hawkins(live)
TTITLE8=blues in time - gerry mulligan,paul desmond
EXTD=
EXTT0=
EXTT1=
EXTT2=
EXTT3=
EXTT4=
EXTT5=
EXTT6=
EXTT7=
EXTT8=
PLAYORDER=
